<?xml version="1.0" standalone="no"?>
<!DOCTYPE svg PUBLIC "-//W3C//DTD SVG 1.1//EN"
  "http://www.w3.org/Graphics/SVG/1.1/DTD/svg11.dtd">
<svg version="1.1" xmlns="http://www.w3.org/2000/svg" xmlns:xlink="http://www.w3.org/1999/xlink" width="1920" height="1080" viewBox="-1040.888888888889 -32 1889.7777777777778 1063" id="ccdiagram"><filter id="grayscale"><feColorMatrix type="matrix" values="0.3333 0.3333 0.3333 0 0 0.3333 0.3333 0.3333 0 0 0.3333 0.3333 0.3333 0 0 0 0 0 1 0"></feColorMatrix></filter><defs><style type="text/css">@import url('https://fonts.googleapis.com/css?family=Open+Sans:400,700|Inconsolata:400');</style></defs><g><g pointer-events="auto"></g><g pointer-events="auto"><g opacity="1"><g id="98f19ad2-dd01-49e7-9b0b-32c3a80dd31f"><g><g><polygon points="-16 287, 48 287, 176 213, 176 176, 16 83, -144 176, -144 213" stroke="#ffeb3b" stroke-width="8" fill="none"></polygon></g><g><polygon points="16 83, -16 65, -144 139, -144 176" stroke="#ffeb3b" stroke-width="8" fill="#ffeb3b"></polygon><text font-family="Inconsolata" font-size="20pt" font-weight="bold" fill="#000000" transform="translate(-31 100) matrix(0.707 -0.409 0.707 0.409 0 0)" text-anchor="end">rds_sec...</text><g transform="translate(-16 74) matrix(0.707 0.409 -0.707 0.409 0 0)"><svg width="23" height="32" style="fill: rgb(0, 0, 0);"><svg xmlns="http://www.w3.org/2000/svg" width="23" height="32" viewBox="0 0 23 32"><path d="M19.429 17.143V5.714h-8v20.304c.911-.482 2.375-1.321 3.804-2.446 1.911-1.5 4.196-3.839 4.196-6.429zm3.428-13.714v13.714c0 7.518-10.518 12.268-10.964 12.464a1.049 1.049 0 0 1-.928 0C10.519 29.411.001 24.661.001 17.143V3.429c0-.625.518-1.143 1.143-1.143h20.571c.625 0 1.143.518 1.143 1.143z"></path></svg></svg></g></g></g></g></g><g opacity="1"><g id="36febf42-0545-4166-8c25-e65d593fdf1f"><g><g><polygon points="112 712, 176 712, 304 638, 304 601, 144 509, -16 601, -16 638" stroke="#009688" stroke-width="8" fill="none"></polygon></g><g><polygon points="144 509, 112 490, -16 564, -16 601" stroke="#009688" stroke-width="8" fill="#009688"></polygon><text font-family="Inconsolata" font-size="20pt" font-weight="bold" fill="#ffffff" transform="translate(97 526) matrix(0.707 -0.409 0.707 0.409 0 0)" text-anchor="end">bastion...</text><g transform="translate(112 499) matrix(0.707 0.409 -0.707 0.409 0 0)"><svg width="23" height="32" style="fill: rgb(255, 255, 255);"><svg xmlns="http://www.w3.org/2000/svg" width="23" height="32" viewBox="0 0 23 32"><path d="M19.429 17.143V5.714h-8v20.304c.911-.482 2.375-1.321 3.804-2.446 1.911-1.5 4.196-3.839 4.196-6.429zm3.428-13.714v13.714c0 7.518-10.518 12.268-10.964 12.464a1.049 1.049 0 0 1-.928 0C10.519 29.411.001 24.661.001 17.143V3.429c0-.625.518-1.143 1.143-1.143h20.571c.625 0 1.143.518 1.143 1.143z"></path></svg></svg></g></g></g></g></g><g opacity="1"><g id="9fb6f3d6-96b8-4c7f-a0c0-188f671d982f"><g><g><polygon points="416 537, 480 537, 608 463, 608 426, 448 333, 288 426, 288 463" stroke="#673ab7" stroke-width="8" fill="none"></polygon></g><g><polygon points="448 333, 416 315, 288 389, 288 426" stroke="#673ab7" stroke-width="8" fill="#673ab7"></polygon><text font-family="Inconsolata" font-size="20pt" font-weight="bold" fill="#ffffff" transform="translate(401 350) matrix(0.707 -0.409 0.707 0.409 0 0)" text-anchor="end">metrics...</text><g transform="translate(416 324) matrix(0.707 0.409 -0.707 0.409 0 0)"><svg width="23" height="32" style="fill: rgb(255, 255, 255);"><svg xmlns="http://www.w3.org/2000/svg" width="23" height="32" viewBox="0 0 23 32"><path d="M19.429 17.143V5.714h-8v20.304c.911-.482 2.375-1.321 3.804-2.446 1.911-1.5 4.196-3.839 4.196-6.429zm3.428-13.714v13.714c0 7.518-10.518 12.268-10.964 12.464a1.049 1.049 0 0 1-.928 0C10.519 29.411.001 24.661.001 17.143V3.429c0-.625.518-1.143 1.143-1.143h20.571c.625 0 1.143.518 1.143 1.143z"></path></svg></svg></g></g></g></g></g><g opacity="1"><g id="27234338-04c9-40ba-ac64-dc4401cdab2a"><g><g><polygon points="-480 759, -416 759, -288 685, -288 648, -448 555, -608 648, -608 685" stroke="#673ab7" stroke-width="8" fill="none"></polygon></g><g><polygon points="-448 555, -480 537, -608 611, -608 648" stroke="#673ab7" stroke-width="8" fill="#673ab7"></polygon><text font-family="Inconsolata" font-size="20pt" font-weight="bold" fill="#ffffff" transform="translate(-495 572) matrix(0.707 -0.409 0.707 0.409 0 0)" text-anchor="end">alb_sec...</text><g transform="translate(-480 546) matrix(0.707 0.409 -0.707 0.409 0 0)"><svg width="23" height="32" style="fill: rgb(255, 255, 255);"><svg xmlns="http://www.w3.org/2000/svg" width="23" height="32" viewBox="0 0 23 32"><path d="M19.429 17.143V5.714h-8v20.304c.911-.482 2.375-1.321 3.804-2.446 1.911-1.5 4.196-3.839 4.196-6.429zm3.428-13.714v13.714c0 7.518-10.518 12.268-10.964 12.464a1.049 1.049 0 0 1-.928 0C10.519 29.411.001 24.661.001 17.143V3.429c0-.625.518-1.143 1.143-1.143h20.571c.625 0 1.143.518 1.143 1.143z"></path></svg></svg></g></g></g></g></g><g opacity="1"><g id="c9e594ef-9bf5-4f82-8851-c34e26e6253a"><g><g><polygon points="-312 467, -248 467, -120 393, -120 356, -288 259, -448 352, -448 389" stroke="#009688" stroke-width="8" fill="none"></polygon></g><g><polygon points="-288 259, -320 241, -448 315, -448 352" stroke="#009688" stroke-width="8" fill="#009688"></polygon><text font-family="Inconsolata" font-size="20pt" font-weight="bold" fill="#ffffff" transform="translate(-335 276) matrix(0.707 -0.409 0.707 0.409 0 0)" text-anchor="end">api_sec...</text><g transform="translate(-320 250) matrix(0.707 0.409 -0.707 0.409 0 0)"><svg width="23" height="32" style="fill: rgb(255, 255, 255);"><svg xmlns="http://www.w3.org/2000/svg" width="23" height="32" viewBox="0 0 23 32"><path d="M19.429 17.143V5.714h-8v20.304c.911-.482 2.375-1.321 3.804-2.446 1.911-1.5 4.196-3.839 4.196-6.429zm3.428-13.714v13.714c0 7.518-10.518 12.268-10.964 12.464a1.049 1.049 0 0 1-.928 0C10.519 29.411.001 24.661.001 17.143V3.429c0-.625.518-1.143 1.143-1.143h20.571c.625 0 1.143.518 1.143 1.143z"></path></svg></svg></g></g></g></g></g></g><g><g><polygon points="-204 308, -172 326, -98 280, -77 292, -80 250, -152 251, -131 263, -204 308" stroke-linejoin="miter" fill="#009688" stroke="none"></polygon><text font-family="Open Sans" font-weight="700" font-size="14pt" fill="white" transform="translate(-114 278) matrix(0.707 -0.409 0.707 0.409 0 0) rotate(-2.0999999999999943)" text-anchor="end">5432 TCP</text></g><g><polygon points="224 555, 256 574, 332 530, 352 541, 352 500, 280 500, 300 511, 224 555" stroke-linejoin="miter" fill="#009688" stroke="none"></polygon><text font-family="Open Sans" font-weight="700" font-size="14pt" fill="white" transform="translate(316 527) matrix(0.707 -0.409 0.707 0.409 0 0) rotate(0)" text-anchor="end">22 TCP</text></g><g><polygon points="-370 600, -334 621, -272 499, -245 504, -280 467, -343 487, -316 492, -370 600" stroke-linejoin="miter" fill="#673ab7" stroke="none"></polygon><text font-family="Open Sans" font-weight="700" font-size="14pt" fill="white" transform="translate(-288 501) matrix(0.707 -0.409 0.707 0.409 0 0) rotate(-28.700000000000003)" text-anchor="end">80, 443 TCP</text></g><g><polygon points="0 555, 32 537, -131 442, -111 430, -184 430, -184 472, -163 460, 0 555" stroke-linejoin="miter" fill="#009688" stroke="none"></polygon><text font-family="Open Sans" font-weight="700" font-size="14pt" fill="white" transform="translate(-148 458) matrix(0.707 -0.409 0.707 0.409 0 0) rotate(90)" text-anchor="start">22 TCP</text></g></g><g pointer-events="auto"><g opacity="1"><g id="414c36d0-d9ee-4963-9bf1-812436c407ef"><g><g><polygon points="112 786, 176 786, 736 463, 736 426, 16 9, -585 357, -613 357, -927 538, -927 575, -714 699, -712 699, -480 833, -416 833, -144 675, -80 675" stroke="#2196f3" stroke-width="8" fill="none"></polygon></g><g><polygon points="16 9, -16 -9, -240 120, -240 157" stroke="#2196f3" stroke-width="8" fill="#2196f3"></polygon><text font-family="Inconsolata" font-size="20pt" font-weight="bold" fill="#ffffff" transform="translate(-24 22) matrix(0.707 -0.409 0.707 0.409 0 0)" text-anchor="end">vpc_acme</text><g transform="translate(-16 -5) matrix(0.707 0.409 -0.707 0.409 0 0)"><svg width="34" height="32" style="fill: rgb(255, 255, 255);"><svg xmlns="http://www.w3.org/2000/svg" width="34" height="32" viewBox="0 0 34 32"><path d="M34.286 20.571a6.858 6.858 0 0 1-6.857 6.857H8c-4.411 0-8-3.589-8-8a7.993 7.993 0 0 1 4.607-7.232c-.018-.25-.036-.518-.036-.768a9.137 9.137 0 0 1 9.143-9.143c3.821 0 7.089 2.339 8.464 5.679a4.439 4.439 0 0 1 2.964-1.107 4.58 4.58 0 0 1 4.571 4.571 4.49 4.49 0 0 1-.732 2.464c3.036.714 5.304 3.429 5.304 6.679z"></path></svg></svg></g></g></g></g></g></g><g></g><g pointer-events="auto"><g opacity="1"><g id="ca773757-222e-4277-bc58-2688614feb01"><svg x="-288" y="333" overflow="visible"><polygon points="0 0, 72 42, 8 79, -64 37" fill="#f5b720"></polygon><polygon points="0 0, 72 42, 8 79, -64 37" fill="none" stroke-width="20" stroke="#f5b720" opacity="1"></polygon><g cursor="nwse-resize"><polygon points="0 0, -19 -11, 13 -30, -83 -11, -115 44, -83 26, -64 37" fill="#f5b720"></polygon><polygon points="72 42, 92 53, 124 34, 92 90, -4 108, 28 90, 8 79" fill="#f5b720"></polygon></g></svg></g></g><g opacity="1"><g id="3e789842-f0a0-4b0d-bbd7-884c33157b7e"><svg x="448" y="407" overflow="visible"><polygon points="0 0, 64 37, 0 74, -64 37" fill="#f5b720"></polygon><polygon points="0 0, 64 37, 0 74, -64 37" fill="none" stroke-width="20" stroke="#f5b720" opacity="1"></polygon><g cursor="nwse-resize"><polygon points="0 0, -19 -11, 13 -30, -83 -11, -115 44, -83 26, -64 37" fill="#f5b720"></polygon><polygon points="64 37, 83 48, 115 30, 83 85, -13 104, 19 85, 0 74" fill="#f5b720"></polygon></g></svg></g></g></g><g pointer-events="none"></g><g pointer-events="auto"><g><g cursor="cell"><line x1="-208" y1="823" x2="-405" y2="692" stroke="red" stroke-width="10" opacity="0"></line><line x1="-208" y1="823" x2="-405" y2="692" stroke="#000000" stroke-width="4" stroke-linecap="round"></line><polygon points="-416 685, -407 703, -402 694, -385 693, -416 685" stroke-linejoin="round" fill="#000000" stroke="#000000" stroke-width="1"></polygon></g></g><g><g cursor="cell"><line x1="-208" y1="823" x2="-92" y2="756" stroke="red" stroke-width="10" opacity="0"></line><line x1="-208" y1="823" x2="-92" y2="756" stroke="#000000" stroke-width="4" stroke-linecap="round"></line><polygon points="-80 749, -112 756, -96 758, -92 768, -80 749" stroke-linejoin="round" fill="#000000" stroke="#000000" stroke-width="1"></polygon></g></g></g><g pointer-events="auto"><g opacity="1"><g id="8b524a38-ff65-41f7-86af-ef7d6b6f004a" transform="translate(0 0)"><svg x="-48" y="93" height="137.556" width="128" viewBox="0 0 33.867 36.395"><g fill="#4286c5" font-family="sans-serif" font-size="3.175" stroke-width=".265" style="line-height: 0%;"><path d="M.187 12.17v14.365l16.586 9.577V21.747l-4.146-7.183-8.293-4.787z" fill="#d2d2d4" stroke-width=".264"></path><path d="M20.955 14.564l8.292-4.787 4.147 2.394v14.364l-16.587 9.576V21.748z" fill="#b8b8bb" stroke-width=".264"></path><path d="M4.334 9.777l8.292 4.788h8.293l8.293-4.788V4.988L20.919.2h-8.293L4.334 4.988zM12.856 14.565h8.294l-4.147 7.182z" fill="#ececed" stroke-width=".264"></path><path d="M4.394 4.806v4.789L.247 11.988zM29.212 9.595v-4.79l4.146 7.183z" fill="#d2d2d4" stroke-width=".264"></path><path d="M208.47 90.288l4.345-4.346 4.346 8.693z" fill="none" stroke="#83838a" stroke-width=".264" transform="scale(1.34943 .77909) rotate(45 195.366 -185.783)"></path><path d="M199.734 94.678l13.037 13.037h17.383L217.117 94.68l-8.692-4.347h-8.69zM212.819 85.928v-8.69h4.345l13.037 13.037.001 17.382-13.037-13.037zM199.734 90.333h8.69l4.347-4.346v-8.69l-4.347-4.347h-8.69l-4.346 4.346v8.69z" fill="none" stroke="#83838a" stroke-width=".257" transform="scale(1.34943 .77909) rotate(45 195.366 -185.783)"></path><path d="M212.855 107.631l-13.037-13.037-4.346-8.692v-8.69l4.346-4.347h8.69l8.692 4.346 13.038 13.038v17.383z" fill="none" stroke="#000000" stroke-width=".514" transform="scale(1.34943 .77909) rotate(45 195.366 -185.783)"></path><g style="line-height: 0%;"><path d="M15.745 6.453l.69.399q.967.558 1.826.616.865.055 1.596-.367.737-.425.683-.862-.048-.434-.907-.93l-.953-.55zm6.303 1.828q-1.596.921-3.443.831-1.839-.086-3.678-1.148l-.9-.519-3.517 2.03-2.096-1.21 9.887-5.708L21.46 4.38q1.8 1.039 1.955 2.026.169.988-1.366 1.875z" font-family="Open Sans" font-size="14.515" stroke-width=".258" style="line-height: 1.25;"></path></g></g></svg></g></g><g opacity="1"><g id="8906c079-2b2c-40ed-9ef0-ee785d2881d7" transform="translate(0 0)"><svg x="384" y="370" height="111" width="128" fill-rule="evenodd"><path d="M64 74v37l64-37V37L64 74z" fill="#b8b8bb"></path><path d="M0 37v37l64 37V74L0 37z" fill="#d2d2d4"></path><path d="M0 37L64 0l64 37-64 37L0 37z" fill="#ececed"></path><path d="M64 73.407l62.111-35.86.514.889-62.487 36.078h-.276L.743 38.072l.514-.89L64 73.407z" fill="#83838a"></path><path d="M63.486 74h1.027v36h-1.027z" fill="#83838a"></path><path d="M128 37v37l-64 37L0 74V37L64 0l64 37zM2.054 38.185v34.63L64 108.627l61.946-35.812v-34.63L64 2.373 2.054 38.185z" fill="#000000"></path></svg><svg x="442" y="389" width="54" height="36" style="overflow: visible; cursor: default;"><rect transform="matrix(0.707 0.409 -0.707 0.409 0 0)" width="54" height="36" rx="5" ry="5" fill="#4286c5"></rect><text transform="matrix(0.707 0.409 -0.707 0.409 0 0)" font-family="Open Sans" text-anchor="middle" x="50%" font-weight="normal" font-size="20pt" y="80%" fill="#ffffff"><tspan>T2</tspan></text></svg></g></g><g opacity="1"><g id="6b84890f-c7f5-4daf-8611-828479c0bee4" transform="translate(0 0)"><svg x="-348" y="298" height="111" width="128" fill-rule="evenodd"><path d="M64 74v37l64-37V37L64 74z" fill="#b8b8bb"></path><path d="M0 37v37l64 37V74L0 37z" fill="#d2d2d4"></path><path d="M0 37L64 0l64 37-64 37L0 37z" fill="#ececed"></path><path d="M64 73.407l62.111-35.86.514.889-62.487 36.078h-.276L.743 38.072l.514-.89L64 73.407z" fill="#83838a"></path><path d="M63.486 74h1.027v36h-1.027z" fill="#83838a"></path><path d="M128 37v37l-64 37L0 74V37L64 0l64 37zM2.054 38.185v34.63L64 108.627l61.946-35.812v-34.63L64 2.373 2.054 38.185z" fill="#000000"></path></svg><svg x="-290" y="317" width="54" height="36" style="overflow: visible; cursor: default;"><rect transform="matrix(0.707 0.409 -0.707 0.409 0 0)" width="54" height="36" rx="5" ry="5" fill="#4286c5"></rect><text transform="matrix(0.707 0.409 -0.707 0.409 0 0)" font-family="Open Sans" text-anchor="middle" x="50%" font-weight="normal" font-size="20pt" y="80%" fill="#ffffff"><tspan>T2</tspan></text></svg></g></g><g opacity="1"><g id="624b0143-d907-4763-928d-fd02fe4be755" transform="translate(0 0)"><svg x="80" y="546" height="111" width="128" fill-rule="evenodd"><path d="M64 74v37l64-37V37L64 74z" fill="#b8b8bb"></path><path d="M0 37v37l64 37V74L0 37z" fill="#d2d2d4"></path><path d="M0 37L64 0l64 37-64 37L0 37z" fill="#ececed"></path><path d="M64 73.407l62.111-35.86.514.889-62.487 36.078h-.276L.743 38.072l.514-.89L64 73.407z" fill="#83838a"></path><path d="M63.486 74h1.027v36h-1.027z" fill="#83838a"></path><path d="M128 37v37l-64 37L0 74V37L64 0l64 37zM2.054 38.185v34.63L64 108.627l61.946-35.812v-34.63L64 2.373 2.054 38.185z" fill="#000000"></path></svg><svg x="138" y="564" width="54" height="36" style="overflow: visible; cursor: default;"><rect transform="matrix(0.707 0.409 -0.707 0.409 0 0)" width="54" height="36" rx="5" ry="5" fill="#4286c5"></rect><text transform="matrix(0.707 0.409 -0.707 0.409 0 0)" font-family="Open Sans" text-anchor="middle" x="50%" font-weight="normal" font-size="20pt" y="80%" fill="#ffffff"><tspan>T2</tspan></text></svg></g></g><g opacity="1"><g id="17fa1ec1-6b24-4e85-b34d-6a2efe59bed7" transform="translate(0 0)"><svg x="-654" y="418" height="108.05" width="123" viewBox="0 0 32.544 28.588"><path d="M10.115 6.02v14.218l7.873-4.318V1.474z" fill="#b8b8bb" fill-rule="evenodd" stroke="#83838a" stroke-width=".268"></path><path d="M.265 2.228l9.85 3.791v14.219l-9.85-8.531z" fill="#d2d2d4" fill-rule="evenodd" stroke="#83838a" stroke-width=".265"></path><path d="M10.115 6.02l7.873-4.546L3.548.332.265 2.228z" fill="#ececed" fill-rule="evenodd" stroke="#83838a" stroke-width=".265"></path><path d="M.265 11.707l9.85 8.53 7.873-4.317V1.474L3.392.271.265 2.076z" fill="none" fill-rule="evenodd" stroke="#000000" stroke-width=".529"></path><path d="M22.429 3.65L14.22 8.39l14.828 10.397 3.231-1.866z" fill="#ececed" fill-rule="evenodd" stroke="#83838a" stroke-width=".268"></path><path d="M14.22 8.39V22.61l14.777 5.687.051-9.509z" fill="#d2d2d4" fill-rule="evenodd" stroke="#83838a" stroke-width=".265"></path><path d="M29.048 18.787l3.231-1.866V26.4l-3.282 1.897z" fill="#b8b8bb" fill-rule="evenodd" stroke="#83838a" stroke-width=".265"></path><path d="M22.429 3.65L14.22 8.39V22.61l14.777 5.687 3.282-1.897v-9.478z" fill="none" fill-rule="evenodd" stroke="#000000" stroke-width=".529"></path><path d="M18.582 19.764l-1.527-.59c-.28-.108-.509-.02-.509.197v1.179c0 .217.228.48.51.59l1.526.589c.28.108.509.02.509-.197v-1.178c0-.217-.228-.481-.51-.59zm-.382-1.13l3.053 1.18v.589l.763.294v-.589l3.053 1.179v.589l.763.295v-.707c0-.26-.274-.578-.61-.708l-3.206-1.237v-.786l.636.245c.281.109.509.02.509-.196v-1.179c0-.217-.228-.48-.509-.589l-2.035-.786c-.281-.108-.509-.02-.509.197v1.178c0 .217.228.481.509.59l.636.245v.786l-3.205-1.238c-.337-.13-.611-.024-.611.236v.707l.763.295zm4.198 2.603l-1.527-.589c-.28-.108-.508-.02-.508.197v1.178c0 .217.227.481.508.59l1.527.589c.28.108.508.02.508-.196v-1.18c0-.216-.227-.48-.508-.589zm3.816 1.474l-1.527-.59c-.28-.108-.509-.02-.509.197v1.179c0 .217.228.48.51.589l1.526.59c.28.108.508.02.508-.197V23.3c0-.217-.227-.48-.508-.59z" fill="#4286c5" stroke-width=".014"></path></svg></g></g><g opacity="1"><g id="45b3c44f-e5aa-4ee9-8427-1e9b1e6ec25d" transform="translate(0 0)"><svg x="-496" y="601" height="94" width="97" fill-rule="evenodd"><path d="M0 18.6v18.6l32.333 18.6h32.334L97 37.2V18.6L64.667 0H32.333L0 18.6z" fill="#ececed"></path><path d="M64.667 55.8L97 37.2v37.2L64.667 93V55.8z" fill="#b8b8bb"></path><path d="M32.333 55.8h32.334V93H32.333V55.8zM0 37.2v37.2L32.333 93V55.8L0 37.2z" fill="#d2d2d4"></path><g fill="none" stroke="#83838a" stroke-width="1.04"><path d="M.955 37.877L32.333 55.8h32.334l31.378-17.923M32.333 55.8v36.211M64.667 55.8v36.574"></path></g><path d="M97 18.6v55.8L64.667 93H32.333L0 74.4V18.6L32.333 0h32.334L97 18.6zM32.865 1.989L1.989 19.751v53.498l30.876 17.762h31.27l30.876-17.762V19.751L64.135 1.989h-31.27z" fill="#000000"></path><path d="M69.912 15.583c11.818 6.798 11.818 17.836 0 24.635-11.817 6.798-31.007 6.798-42.824 0-11.818-6.799-11.818-17.837 0-24.635 11.817-6.799 31.007-6.799 42.824 0z" fill="#4286c5"></path><path d="M49.584 14.774c1.824 1.049 1.824 2.753 0 3.802-1.824 1.05-4.786 1.05-6.61 0-1.824-1.049-1.824-2.753 0-3.802 1.824-1.05 4.786-1.05 6.61 0zM60.451 21.025c1.825 1.049 1.825 2.753 0 3.803-1.824 1.049-4.786 1.049-6.61 0-1.824-1.05-1.824-2.754 0-3.803s4.786-1.049 6.61 0zM71.319 27.276c1.824 1.05 1.824 2.754 0 3.803-1.825 1.049-4.787 1.049-6.611 0-1.824-1.049-1.824-2.753 0-3.803 1.824-1.049 4.786-1.049 6.611 0zM38.497 33.654c1.824 1.05 1.824 2.754 0 3.803-1.825 1.05-4.787 1.05-6.611 0-1.824-1.049-1.824-2.753 0-3.803 1.824-1.049 4.786-1.049 6.611 0z" fill="#ffffff"></path><path d="M47.458 15.878c.453.26.393.717-.133 1.02-.526.303-1.32.337-1.773.076-.452-.26-.392-.717.133-1.019.526-.303 1.321-.337 1.773-.077z" fill="#ffffff"></path><path d="M48.111 15.621c1.012.582 1.012 1.526 0 2.108-1.011.582-2.653.582-3.664 0-1.012-.582-1.012-1.526 0-2.108 1.011-.582 2.653-.582 3.664 0zM58.978 21.872c1.012.582 1.012 1.527 0 2.108-1.011.582-2.653.582-3.664 0-1.012-.581-1.012-1.526 0-2.108 1.011-.581 2.653-.581 3.664 0zM69.846 28.124c1.011.581 1.011 1.526 0 2.108-1.012.582-2.654.582-3.665 0-1.011-.582-1.011-1.527 0-2.108 1.011-.582 2.653-.582 3.665 0z" fill="#4286c5"></path><path d="M37.024 34.502c1.011.582 1.011 1.526 0 2.108-1.012.582-2.654.582-3.665 0-1.011-.582-1.011-1.526 0-2.108 1.011-.582 2.653-.582 3.665 0z" fill="#ffffff"></path><g fill="#ffffff"><path d="M52.301 25.172L37.719 33.56l.482.834 14.584-8.388-.484-.834z"></path><path d="M46.993 26.089l6.654-1.146-4.324 5.168c.189-1.691-.757-3.313-2.33-4.022z" stroke="#ffffff" stroke-width=".36"></path></g><g fill="#ffffff"><path d="M43.488 19.937l-6.057 13.797.886.387 6.056-13.798-.885-.386z"></path><path d="M39.76 23.812l4.676-4.854-.405 6.716c-.855-1.474-2.582-2.221-4.271-1.862z" stroke="#ffffff" stroke-width=".36"></path></g><g fill="#ffffff"><path d="M61.953 30.061l-23.985 3.483.14.955 23.985-3.486-.14-.952z"></path><path d="M56.68 28.957l6.608 1.387-5.936 3.209c.804-1.503.526-3.358-.672-4.596h0z" stroke="#ffffff" stroke-width=".36"></path></g><path d="M37.96 33.977l13.12-7.547M37.873 33.927l5.792-13.134M38.037 34.022l22.478-3.281" fill="#ffffff" stroke="#ffffff" stroke-width="1.93"></path></svg></g></g><g opacity="1"><g id="5bdc362c-cdde-48e5-879b-cf46f2883999" transform="translate(0 0)"><svg x="-814" y="511" height="108.05" width="123" viewBox="0 0 32.544 28.588"><path d="M10.115 6.02v14.218l7.873-4.318V1.474z" fill="#b8b8bb" fill-rule="evenodd" stroke="#83838a" stroke-width=".268"></path><path d="M.265 2.228l9.85 3.791v14.219l-9.85-8.531z" fill="#d2d2d4" fill-rule="evenodd" stroke="#83838a" stroke-width=".265"></path><path d="M10.115 6.02l7.873-4.546L3.548.332.265 2.228z" fill="#ececed" fill-rule="evenodd" stroke="#83838a" stroke-width=".265"></path><path d="M.265 11.707l9.85 8.53 7.873-4.317V1.474L3.392.271.265 2.076z" fill="none" fill-rule="evenodd" stroke="#000000" stroke-width=".529"></path><path d="M22.429 3.65L14.22 8.39l14.828 10.397 3.231-1.866z" fill="#ececed" fill-rule="evenodd" stroke="#83838a" stroke-width=".268"></path><path d="M14.22 8.39V22.61l14.777 5.687.051-9.509z" fill="#d2d2d4" fill-rule="evenodd" stroke="#83838a" stroke-width=".265"></path><path d="M29.048 18.787l3.231-1.866V26.4l-3.282 1.897z" fill="#b8b8bb" fill-rule="evenodd" stroke="#83838a" stroke-width=".265"></path><path d="M22.429 3.65L14.22 8.39V22.61l14.777 5.687 3.282-1.897v-9.478z" fill="none" fill-rule="evenodd" stroke="#000000" stroke-width=".529"></path><path d="M25.604 20.872c-.071-.975-.928-2.116-1.982-2.599a2.547 2.547 0 0 0-.398-.144c-.566-.91-1.446-1.74-2.441-2.195-1.501-.687-2.76-.293-3.057.872-1.062-.091-1.77.532-1.77 1.597 0 1.436 1.27 3.181 2.84 3.899l5.961 2.73c1.41.645 2.555.121 2.555-1.17 0-1.004-.695-2.2-1.708-2.99zm-.847 3.38l-5.962-2.73c-1.098-.502-1.987-1.723-1.987-2.729 0-.916.74-1.336 1.704-1.022v-.018c0-1.148 1.016-1.613 2.27-1.04.95.435 1.763 1.34 2.102 2.252.198-.065.456-.041.738.088.626.287 1.135.986 1.135 1.56a.657.657 0 0 1-.156.454c.052.019.105.042.156.065.94.43 1.704 1.479 1.704 2.34 0 .86-.763 1.21-1.704.78z" fill="#4286c5" stroke-width=".017"></path></svg></g></g></g><g pointer-events="auto"></g><g pointer-events="auto"><g opacity="1"><g id="1aabc191-fefb-4b08-a7e1-7b0bac8c1ed4" transform="translate(0 0)"><svg x="-208" y="823" overflow="visible"><g transform=" "><circle cx="0" cy="0" fill="transparent" r="40"></circle><svg width="100" height="100" x="-50" y="-50" style=""><svg id="Layer_1" data-name="Layer 1" xmlns="http://www.w3.org/2000/svg" width="100" height="100" viewBox="0 0 100 100"><g><path fill="#f58536" d="M64.29 83.83L49.94 91V9l14.35 7.18v67.65z"></path><path fill="#9d5025" d="M35.59 83.83L49.94 91V9l-14.35 7.18v67.65z"></path><path fill="#f58536" d="M44.53 38.84l-24.2-3.08V23.81l24.2 5.69v9.34z"></path><path fill="#9d5025" d="M16 25.97l4.33-2.16v11.95L16 36.96V25.97z"></path><path fill="#6b3a19" d="M44.53 38.84l-5.01.74L16 36.96l4.33-1.2 24.2 3.08z"></path><path fill="#f58536" d="M80.41 60.31l3.59-.74V50h-3.59v10.31z"></path><path fill="#9d5025" d="M55.3 58.14l25.11 2.34V50H55.3v8.14z"></path></g></svg></svg></g></svg></g></g><g opacity="1"><g id="813b2ba2-adfa-41c8-ad79-648e88245988" transform="translate(0 0)"><svg x="-80" y="749" overflow="visible"><g transform="scale(1.25) "><circle cx="0" cy="0" fill="transparent" r="40"></circle><svg width="100" height="100" x="-50" y="-50" style=""><svg id="Layer_1" data-name="Layer 1" xmlns="http://www.w3.org/2000/svg" width="100" height="100" viewBox="0 0 100 100"><g><path d="M50 25.06L76.5 29v2.32c0 3.45-11.87 6.23-26.51 6.23s-26.5-2.78-26.5-6.23V28.8z" fill="#8c3123"></path><path d="M50 41.8c11.07 0 20.55-1.59 24.52-3.85l1.3-2.2.53-2v2.48l-8.67 37c0 2.3-7.91 4.15-17.67 4.15s-17.66-1.85-17.66-4.15l-8.67-37V33.8l2 4.23C29.66 40.25 39.05 41.8 50 41.8z" fill="#8c3123"></path><path d="M50 22.58c14.64 0 26.51 2.79 26.51 6.22S64.63 35 50 35s-26.5-2.75-26.5-6.2 11.86-6.22 26.5-6.22z" fill="#e05243"></path><path d="M50 39.32c13.65 0 24.88-2.41 26.34-5.53l-8.67 37c0 2.3-7.91 4.15-17.67 4.15S32.33 73.1 32.33 70.8l-8.67-37c1.47 3.11 12.7 5.52 26.34 5.52z" fill="#e05243"></path><path fill="#fff" d="M43.76 42.85h11.48v11.4H43.76z"></path><ellipse cx="40.29" cy="63.9" rx="5.66" ry="5.62" fill="#fff"></ellipse><path fill="#fff" fill-rule="evenodd" d="M64.09 69.26H52.75l5.67-10.48 5.67 10.48z"></path></g></svg></svg></g></svg></g></g></g><g pointer-events="auto"><g opacity="1"><g id="b94cf0c6-db73-441a-aac8-467c9e4b1ee5"><svg x="-357" y="377" overflow="visible"><text stroke="#ffffff" stroke-width="4" font-family="Open Sans" y="30.799999999999997" font-size="20pt" fill="#000000" font-weight="bold" transform="matrix(0.707 0.409 -0.707 0.409 0 0)" xml:space="preserve"><tspan x="8" dy="0">API </tspan><tspan x="8" dy="1.1em">Autoscaling</tspan><tspan x="8" dy="1.1em">Group</tspan></text><text font-family="Open Sans" y="30.799999999999997" font-size="20pt" fill="#000000" font-weight="bold" transform="matrix(0.707 0.409 -0.707 0.409 0 0)" xml:space="preserve"><tspan x="8" dy="0">API </tspan><tspan x="8" dy="1.1em">Autoscaling</tspan><tspan x="8" dy="1.1em">Group</tspan></text></svg></g></g><g opacity="1"><g id="85496c3c-cdd4-4c06-9683-efb58403ecbb"><svg x="-35" y="776" overflow="visible"><text stroke="#ffffff" stroke-width="4" font-family="Open Sans" y="36.5" font-size="25pt" fill="#000000" font-weight="bold" transform="matrix(0.707 0.409 -0.707 0.409 0 0)" xml:space="preserve"><tspan x="8" dy="0">S3 bucket </tspan><tspan x="8" dy="1.1em">Static UI</tspan></text><text font-family="Open Sans" y="36.5" font-size="25pt" fill="#000000" font-weight="bold" transform="matrix(0.707 0.409 -0.707 0.409 0 0)" xml:space="preserve"><tspan x="8" dy="0">S3 bucket </tspan><tspan x="8" dy="1.1em">Static UI</tspan></text></svg></g></g><g opacity="1"><g id="19803262-fa1c-44f0-89ab-5ea7df6fd55c"><svg x="-40" y="199" overflow="visible"><text stroke="#ffffff" stroke-width="4" font-family="Open Sans" y="36.5" font-size="25pt" fill="#000000" font-weight="bold" transform="matrix(0.707 0.409 -0.707 0.409 0 0)" xml:space="preserve"><tspan x="8" dy="0">RDS</tspan></text><text font-family="Open Sans" y="36.5" font-size="25pt" fill="#000000" font-weight="bold" transform="matrix(0.707 0.409 -0.707 0.409 0 0)" xml:space="preserve"><tspan x="8" dy="0">RDS</tspan></text></svg></g></g><g opacity="1"><g id="b306d13a-7b86-4949-896d-af901141f2e2" transform="translate(0 0)"><svg x="64" y="259" overflow="visible"><text stroke="#ffffff" stroke-width="0" font-family="Open Sans" y="22.592" font-size="12.8pt" fill="#000000" font-weight="bold" transform="" xml:space="preserve"><tspan x="8" dy="0">Private Subnet</tspan></text><text font-family="Open Sans" y="22.592" font-size="12.8pt" fill="#000000" font-weight="bold" transform="" xml:space="preserve"><tspan x="8" dy="0">Private Subnet</tspan></text></svg></g></g><g opacity="1"><g id="8e214bb9-67ae-4f2d-af0b-c866a293cb0e"><svg x="409" y="469" overflow="visible"><text stroke="#ffffff" stroke-width="4" font-family="Open Sans" y="30.799999999999997" font-size="20pt" fill="#000000" font-weight="bold" transform="matrix(0.707 0.409 -0.707 0.409 0 0)" xml:space="preserve"><tspan x="8" dy="0">Metrics</tspan><tspan x="8" dy="1.1em">Autoscaling</tspan><tspan x="8" dy="1.1em">Group</tspan></text><text font-family="Open Sans" y="30.799999999999997" font-size="20pt" fill="#000000" font-weight="bold" transform="matrix(0.707 0.409 -0.707 0.409 0 0)" xml:space="preserve"><tspan x="8" dy="0">Metrics</tspan><tspan x="8" dy="1.1em">Autoscaling</tspan><tspan x="8" dy="1.1em">Group</tspan></text></svg></g></g><g opacity="1"><g id="d36b9e57-921b-4cea-a1d2-b4291880dd38"><svg x="-496" y="675" overflow="visible"><text stroke="#ffffff" stroke-width="4" font-family="Open Sans" y="30.799999999999997" font-size="20pt" fill="#000000" font-weight="bold" transform="matrix(0.707 0.409 -0.707 0.409 0 0)" xml:space="preserve"><tspan x="8" dy="0">Application</tspan><tspan x="8" dy="1.1em">Load Balancer</tspan></text><text font-family="Open Sans" y="30.799999999999997" font-size="20pt" fill="#000000" font-weight="bold" transform="matrix(0.707 0.409 -0.707 0.409 0 0)" xml:space="preserve"><tspan x="8" dy="0">Application</tspan><tspan x="8" dy="1.1em">Load Balancer</tspan></text></svg></g></g><g opacity="1"><g id="35b802f7-ded2-4001-a26f-44f422e92e96" transform="translate(0 0)"><svg x="480" y="407" overflow="visible"><text stroke="#ffffff" stroke-width="0" font-family="Open Sans" y="22.592" font-size="12.8pt" fill="#000000" font-weight="bold" transform="" xml:space="preserve"><tspan x="8" dy="0">Private Subnet</tspan></text><text font-family="Open Sans" y="22.592" font-size="12.8pt" fill="#000000" font-weight="bold" transform="" xml:space="preserve"><tspan x="8" dy="0">Private Subnet</tspan></text></svg></g></g><g opacity="1"><g id="bc599d18-476e-4c68-8e96-a4db261c1e1d" transform="translate(0 0)"><svg x="-368" y="287" overflow="visible"><text stroke="#ffffff" stroke-width="0" font-family="Open Sans" y="22.592" font-size="12.8pt" fill="#000000" font-weight="bold" transform="" xml:space="preserve"><tspan x="8" dy="0">Private Subnet</tspan></text><text font-family="Open Sans" y="22.592" font-size="12.8pt" fill="#000000" font-weight="bold" transform="" xml:space="preserve"><tspan x="8" dy="0">Private Subnet</tspan></text></svg></g></g><g opacity="1"><g id="e0c2bbf6-6de9-4b27-82e3-b4f894f19d17" transform="translate(0 0)"><svg x="16" y="638" overflow="visible"><text stroke="#ffffff" stroke-width="0" font-family="Open Sans" y="22.592" font-size="12.8pt" fill="#000000" font-weight="bold" transform="" xml:space="preserve"><tspan x="8" dy="0">Public Subnet</tspan></text><text font-family="Open Sans" y="22.592" font-size="12.8pt" fill="#000000" font-weight="bold" transform="" xml:space="preserve"><tspan x="8" dy="0">Public Subnet</tspan></text></svg></g></g><g opacity="1"><g id="5db67fb2-edc9-4d72-bc29-a74e527aaf91"><svg x="-163" y="850" overflow="visible"><text stroke="#ffffff" stroke-width="4" font-family="Open Sans" y="36.5" font-size="25pt" fill="#000000" font-weight="bold" transform="matrix(0.707 0.409 -0.707 0.409 0 0)" xml:space="preserve"><tspan x="8" dy="0">Route 53</tspan></text><text font-family="Open Sans" y="36.5" font-size="25pt" fill="#000000" font-weight="bold" transform="matrix(0.707 0.409 -0.707 0.409 0 0)" xml:space="preserve"><tspan x="8" dy="0">Route 53</tspan></text></svg></g></g><g opacity="1"><g id="54a8ae67-ef31-40c9-905e-a5a8c028b0d8"><svg x="-871" y="534" overflow="visible"><text stroke="#ffffff" stroke-width="4" font-family="Open Sans" y="30.799999999999997" font-size="20pt" fill="#000000" font-weight="bold" transform="matrix(0.707 0.409 -0.707 0.409 0 0)" xml:space="preserve"><tspan x="8" dy="0">Internet Gateway</tspan></text><text font-family="Open Sans" y="30.799999999999997" font-size="20pt" fill="#000000" font-weight="bold" transform="matrix(0.707 0.409 -0.707 0.409 0 0)" xml:space="preserve"><tspan x="8" dy="0">Internet Gateway</tspan></text></svg></g></g><g opacity="1"><g id="ec0d7b8e-b011-4675-8fbc-2d7195b66cfc"><svg x="-672" y="463" overflow="visible"><text stroke="#ffffff" stroke-width="4" font-family="Open Sans" y="30.799999999999997" font-size="20pt" fill="#000000" font-weight="bold" transform="matrix(0.707 0.409 -0.707 0.409 0 0)" xml:space="preserve"><tspan x="8" dy="0">NAT Gateway</tspan></text><text font-family="Open Sans" y="30.799999999999997" font-size="20pt" fill="#000000" font-weight="bold" transform="matrix(0.707 0.409 -0.707 0.409 0 0)" xml:space="preserve"><tspan x="8" dy="0">NAT Gateway</tspan></text></svg></g></g></g><g></g></g></svg>